<?xml version="1.0" encoding="iso-8859-1"?>
<!-- Generator: Adobe Illustrator 19.0.0, SVG Export Plug-In . SVG Version: 6.00 Build 0)  -->
<svg xmlns="http://www.w3.org/2000/svg" xmlns:xlink="http://www.w3.org/1999/xlink" version="1.1" id="Layer_1" x="0px" y="0px" viewBox="0 0 512 512" style="enable-background:new 0 0 512 512;" xml:space="preserve" width="512px" height="512px">
<g>
	<g>
		<path d="M449.394,0H62.606C45.894,0,32.297,13.597,32.297,30.309v451.381c0,16.713,13.597,30.309,30.309,30.309h386.787    c16.713,0,30.309-13.597,30.309-30.309V30.309C479.703,13.597,466.106,0,449.394,0z M173.349,487.751H62.606    c-3.341,0.001-6.062-2.719-6.062-6.061V335.797h116.805V487.751z M173.349,311.551H56.545V159.659h116.805V311.551z     M314.403,487.753H197.598V335.797h116.805V487.753z M314.403,311.55H197.598V159.659h116.805V311.55z M455.455,481.691    c0,3.341-2.719,6.062-6.062,6.062H338.651V159.659h116.805V481.691z M455.455,135.411H56.545V30.309    c0-3.342,2.721-6.062,6.062-6.062h386.787c3.342,0,6.062,2.719,6.062,6.062V135.411z" fill="#333333"/>
	</g>
</g>
<g>
	<g>
		<path d="M144.922,223.48h-17.85v-17.85c0-6.696-5.428-12.124-12.124-12.124c-6.696,0-12.124,5.428-12.124,12.124v17.85h-17.85    c-6.696,0-12.124,5.428-12.124,12.124s5.428,12.124,12.124,12.124h17.85v17.85c0,6.696,5.428,12.124,12.124,12.124    s12.124-5.428,12.124-12.124v-17.85h17.85c6.696,0,12.124-5.428,12.124-12.124S151.618,223.48,144.922,223.48z" fill="#333333"/>
	</g>
</g>
<g>
	<g>
		<path d="M286.573,223.48h-61.146c-6.696,0-12.124,5.428-12.124,12.124c0,6.696,5.428,12.124,12.124,12.124h61.146    c6.696,0,12.124-5.428,12.124-12.124C298.697,228.908,293.269,223.48,286.573,223.48z" fill="#333333"/>
	</g>
</g>
<g>
	<g>
		<path d="M132.094,411.806l14.635-14.636c4.734-4.734,4.734-12.411,0-17.147c-4.734-4.734-12.411-4.734-17.145,0l-14.636,14.636    l-14.635-14.635c-4.734-4.734-12.411-4.734-17.147,0c-4.734,4.734-4.734,12.411,0,17.147l14.636,14.636l-14.636,14.636    c-4.734,4.734-4.734,12.411,0,17.147c2.368,2.368,5.47,3.551,8.573,3.551c3.102,0,6.206-1.183,8.573-3.551l14.636-14.635    l14.636,14.635c2.368,2.368,5.47,3.551,8.573,3.551c3.102,0,6.206-1.183,8.573-3.551c4.734-4.734,4.734-12.411,0-17.147    L132.094,411.806z" fill="#333333"/>
	</g>
</g>
<g>
	<g>
		<path d="M287.778,380.023c-4.734-4.734-12.411-4.734-17.147,0l-46.417,46.417c-4.733,4.736-4.733,12.412,0.001,17.147    c2.368,2.368,5.47,3.551,8.573,3.551c3.102,0,6.206-1.183,8.573-3.551l46.417-46.417    C292.512,392.436,292.512,384.759,287.778,380.023z" fill="#333333"/>
	</g>
</g>
<g>
	<g>
		<circle cx="232.789" cy="388.602" r="12.124" fill="#333333"/>
	</g>
</g>
<g>
	<g>
		<circle cx="279.21" cy="435.012" r="12.124" fill="#333333"/>
	</g>
</g>
<g>
	<g>
		<path d="M427.686,290.423h-61.972c-6.696,0-12.124,5.428-12.124,12.124s5.428,12.124,12.124,12.124h61.972    c6.696,0,12.124-5.428,12.124-12.124C439.81,295.851,434.382,290.423,427.686,290.423z" fill="#333333"/>
	</g>
</g>
<g>
	<g>
		<path d="M427.686,332.74h-61.972c-6.696,0-12.124,5.428-12.124,12.124c0,6.696,5.428,12.124,12.124,12.124h61.972    c6.696,0,12.124-5.428,12.124-12.124C439.81,338.167,434.382,332.74,427.686,332.74z" fill="#333333"/>
	</g>
</g>
<g>
</g>
<g>
</g>
<g>
</g>
<g>
</g>
<g>
</g>
<g>
</g>
<g>
</g>
<g>
</g>
<g>
</g>
<g>
</g>
<g>
</g>
<g>
</g>
<g>
</g>
<g>
</g>
<g>
</g>
</svg>
